<svg id="レイヤー_1" data-name="レイヤー 1" xmlns="http://www.w3.org/2000/svg" width="330" height="108" viewBox="0 0 330 108"><defs><style>.cls-1{fill:#3c3c3c;}</style></defs><g id="グループ_43" data-name="グループ 43"><path id="パス_60" data-name="パス 60" class="cls-1" d="M113.14,64.21c.65-.53,1.28-1.09,1.88-1.68a2.37,2.37,0,0,0,.85-2.12c-.25-1.32-1.8-2-3.6-2.77a17.19,17.19,0,0,1-2.44-1.19c-3.64-2.3-5.23-6.18-4.71-11.51a13.59,13.59,0,0,0-3.48-10.45h0c0-4.16-1.88-6.45-3.88-8.83a17.38,17.38,0,0,1-4-6.8c-1.06-3.8-4.37-7.31-9.08-9.64-4.09-2-8.59-2.84-11.91-2.17-5.13-4.54-12.31-7-21.16-7a24.14,24.14,0,0,0-7,1.15,30,30,0,0,1-6.91,1.26c-16.1.85-27.07,11.42-28.61,27.6A20.46,20.46,0,0,0,9,33.39,22.21,22.21,0,0,0,2.24,41.3C0,45.58-.6,49.78.64,53.1A34.83,34.83,0,0,1,3,66.18a17.64,17.64,0,0,0,.62,5.36c.77,2.39,3,3.93,5.16,5.42C10.69,78.25,12.47,79.47,13,81c2.14,6.88,8,8.39,14.34,8.62,3.08,3.53,8,6.25,13.67,7.47a30.33,30.33,0,0,0,6.3.7A20.56,20.56,0,0,0,56.18,96c5.28-2.59,7.46-2.71,9.76-2.84a21,21,0,0,0,9-2.37c4.7-2.17,5.59-5,6.62-8.3a28.17,28.17,0,0,1,2.39-5.86c.43-.75,1-1.55,1.53-2.4a31.8,31.8,0,0,0,3.46-6.15c8.35-3.8,9.09-10.62,9.87-17.83a50.81,50.81,0,0,1,1.76-9.87A27,27,0,0,0,101.4,37a12.11,12.11,0,0,1,2,7.81c-.73,7.52,2.59,11.31,5.51,13.16a19.59,19.59,0,0,0,2.68,1.32c.94.4,2.5,1.08,2.58,1.49,0,0,0,.23-.37.55A20.13,20.13,0,0,1,112,62.86c-1.08.9-1.8,1.49-1.66,3.17a5,5,0,0,0,1,2.59c.31.46.31.51.26.71s-.31.45-.67.71a1.76,1.76,0,0,0-1,1.43,1.62,1.62,0,0,0,.81,1.26c.31.23.4.32.39.39a2.73,2.73,0,0,1-.46.65,4,4,0,0,0-1.18,2.63c0,.27,0,.62,0,1,.14,2,.4,5.64-1.71,6.68-1.2.59-3.39.43-5.93.24-3.27-.24-7.33-.53-11.06.72-5.55,1.86-15,7.19-16.05,21.94a.87.87,0,0,0,.81.93h.06a.87.87,0,0,0,.87-.81c1-13.73,9.73-18.68,14.87-20.41,3.4-1.14,7.1-.87,10.37-.63,2.79.2,5.21.38,6.83-.41,3.18-1.56,2.85-6.16,2.69-8.37,0-.38,0-.7,0-.91a2.45,2.45,0,0,1,.77-1.51,3.1,3.1,0,0,0,.85-1.54,2,2,0,0,0-.92-1.9,3.13,3.13,0,0,0,1.29-1.62,2.33,2.33,0,0,0-.49-2.19,3.16,3.16,0,0,1-.66-1.75C112,65.11,112.15,65,113.14,64.21Zm-102.32-34a29.37,29.37,0,0,1,7.72-17.88c4.73-4.91,11.38-7.72,19.24-8.14a31,31,0,0,0,7.28-1.32,23,23,0,0,1,6.53-1.08c8.51,0,15.61,2.41,20.51,7,4.62,4.3,7.24,10.33,7.81,17.93l-.26-.45c-1.76-3-3.43-5.85-6.27-8-7.73-5.72-12.22-6.49-20.6-3.47l-.63-.23c-8.16-2.63-12-.05-15.43,2.22a15.58,15.58,0,0,1-4.2,2.24c-1,.29-2,.51-2.9.72-3.83.88-7.14,1.63-9.65,6.91a23.22,23.22,0,0,0-2.3,10.06,12.8,12.8,0,0,0-3.14,6.79c-2.76-4.38-4.2-8.19-3.71-13.34ZM80.87,53.28a15.42,15.42,0,0,0-.74-6.71A17.29,17.29,0,0,0,71.39,36.5a21.59,21.59,0,0,0-5.26-7.86A27.66,27.66,0,0,0,55,15.93c6.24-2,10.21-1.46,17.31,3.8,2.56,1.89,4.13,4.59,5.8,7.44a30.39,30.39,0,0,0,6.27,8.28,6.72,6.72,0,0,1,2.43,5.38c0,4.45-3.44,9.51-6,12.45ZM37.58,74.08a23.35,23.35,0,0,0,9.17,2,19.12,19.12,0,0,0,3-.24c4.55-.74,11-5.53,13.76-8.62A21.81,21.81,0,0,0,70.66,61,18.11,18.11,0,0,0,73,56.76a.5.5,0,0,0,.08-.2v0a22.65,22.65,0,0,0,.58-12.79A47.25,47.25,0,0,0,72.31,39a16.06,16.06,0,0,1,6.15,8.13,13.27,13.27,0,0,1-1.11,11.23c-.92,1.57-1.06,3.93-1.19,6.21-.11,1.9-.23,3.87-.81,5-3.63,6.81-7.86,7.57-13.9,8a10.89,10.89,0,0,0-4.77,1.68,12,12,0,0,1-6.37,1.9C46,81.07,41,77.62,37.58,74.08ZM15.79,53.47c.07-1,.08-2.06.08-3.22,0-3.46,0-7.61,2-10.78a24.11,24.11,0,0,0,5,11.93,19,19,0,0,0,.31,7.24c1.2,4.76,4.92,9.61,10,13l.36.23a32.93,32.93,0,0,0,8.06,7.78,19.22,19.22,0,0,1-14.27-3.21c-4.85-3.51-5.39-5.83-5.95-8.29a14.91,14.91,0,0,0-.88-2.9,30.18,30.18,0,0,0-1.92-3.47C17,59.29,15.52,56.94,15.79,53.47ZM52.4,16.58h0c3.93,1.59,8.2,5.6,10.74,9.93-4.07-2.23-9.18-2.56-15.21-1A31.32,31.32,0,0,0,31.77,35.64a.8.8,0,0,0-.23.29A23,23,0,0,0,30,38.18c-3.19,2.22-5.61,6.38-6.72,10.88a21.58,21.58,0,0,1-3.89-11.74.87.87,0,0,0,0-.36,21.81,21.81,0,0,1,2.18-9.49C23.7,23,26.21,22.39,30,21.52c1-.22,1.94-.45,3-.75a17.54,17.54,0,0,0,4.67-2.46c3.23-2.16,6.57-4.39,13.92-2ZM69.88,37.43l.05.11a42,42,0,0,1,2,6.59,22.89,22.89,0,0,1,.4,8.08,16.76,16.76,0,0,0-7-7.8l0,0c-.38-.23-.77-.44-1.17-.65C60.66,42,59.68,41,58.48,39c-2.59-4.38-7.44-5.6-14.41-3.62-4.16,1.18-7.54,1.37-10.26.58a30,30,0,0,1,14.56-8.69A26.21,26.21,0,0,1,55,26.3a14.76,14.76,0,0,1,7.86,2C65.81,30.17,68.15,33.16,69.88,37.43ZM62.57,65.74c-4,1.2-14.44,3.3-17.45-.74a15.29,15.29,0,0,0-6-4.88l-1.29-.7a16.43,16.43,0,0,0,4.23-.77,12.89,12.89,0,0,1,7.17-.52c3.3.78,6.84-1.2,9-3.31A18,18,0,0,0,61,51.09a17.84,17.84,0,0,1,3.83-4.89c5.49,3.52,6.69,8.46,6.51,9.8A18.57,18.57,0,0,1,62.57,65.74ZM60,68.21c-.5.42-1,.85-1.58,1.27-2.86,2.17-6.34,4.2-8.88,4.62-4.9.8-10.53-.63-15.43-3.92-4.69-3.14-8.14-7.62-9.24-12-1.26-5,.21-11.33,3.19-15.54a15.86,15.86,0,0,1,1.08-1.37c-.11.58-.23,1.24-.33,2a28.74,28.74,0,0,0-.27,2.93c-.19,4.47.8,8.07,2.87,10.57.16.19.32.38.49.55a9.93,9.93,0,0,0,1.29,1.14c.45.33.87.62,1.28.9a45.1,45.1,0,0,0,3.9,2.33A13.44,13.44,0,0,1,43.71,66c1.77,2.37,5.15,3.08,8.61,3.08a35.31,35.31,0,0,0,6.24-.64c.49-.09,1-.18,1.39-.28ZM32.63,37.38c2.9,1,6.4,1,10.65,0a15.47,15.47,0,0,1,.93,5.43,16.48,16.48,0,0,1-1.49,5.64c-1.16,3-2.35,6.07-.93,8.49l-.28.09a17,17,0,0,1-6.47.65L34.17,57C27.71,52.26,31,40.55,31.41,39.21A20.78,20.78,0,0,1,32.63,37.38Zm10.95,19c-1.31-1.62-.53-4,.77-7.37A17.5,17.5,0,0,0,46,42.73a17.47,17.47,0,0,0-1-5.82c5.95-1.59,9.88-.63,12,2.94,1.46,2.47,2.81,3.64,6.27,5.42a21.15,21.15,0,0,0-3.71,4.91,17.51,17.51,0,0,1-2.42,3.38c-1.79,1.71-4.81,3.49-7.44,2.87a14.06,14.06,0,0,0-6.09,0Zm-29,24.1c-.67-2.15-2.78-3.6-4.81-5S5.91,72.83,5.32,71a16.5,16.5,0,0,1-.54-4.85A36.28,36.28,0,0,0,2.27,52.49c-2.18-5.88,2.84-13.93,7-17.12.65,3.83,2.44,7.19,5,10.92-.09,1.36-.1,2.7-.1,4s0,2.2-.08,3.11c-.31,4,1.34,6.73,2.94,9.34A30,30,0,0,1,18.8,66a13.57,13.57,0,0,1,.77,2.57c.58,2.54,1.24,5.42,6.62,9.32a20.08,20.08,0,0,0,11.94,3.8,21.79,21.79,0,0,0,5.56-.7,18.46,18.46,0,0,0,2.49,1.1c-4.57,4-10,5.89-16.85,5.89C21.89,87.94,16.54,86.68,14.62,80.52ZM84,73.24c-.59.88-1.15,1.71-1.6,2.52A29.53,29.53,0,0,0,79.87,82c-1,3.25-1.69,5.39-5.68,7.24a19.16,19.16,0,0,1-8.35,2.21c-2.38.13-4.84.27-10.43,3-7.28,3.57-19.34,1.2-25.66-4.73,7.56-.08,13.43-2.34,18.42-7.08a12,12,0,0,0,2.15.22,13.66,13.66,0,0,0,7.21-2.12,9.27,9.27,0,0,1,4-1.47c6.22-.39,11.3-1.29,15.33-8.87.77-1.43.89-3.5,1-5.69s.24-4.22,1-5.43a14.31,14.31,0,0,0,1.24-2.66,31.75,31.75,0,0,0,5.66-7.13c5.75,12.61,1.43,19-1.75,23.79Zm14.87-33.4a51.94,51.94,0,0,0-1.83,10.21c-.7,6.48-1.32,12.16-7.35,15.65,1.16-4.45,1-10.26-2.9-18.16a15.88,15.88,0,0,0,1.78-6.7,8.43,8.43,0,0,0-3-6.71,21.57,21.57,0,0,1-3.77-4.38c-.06-8.91-2.67-16.09-7.44-21.16a19.73,19.73,0,0,1,9.54,2.19c4.27,2.11,7.25,5.23,8.18,8.55a18.94,18.94,0,0,0,4.35,7.45C99.09,30,101.21,32.5,98.88,39.84Z"/><g id="グループ_41" data-name="グループ 41"><path id="パス_61" data-name="パス 61" class="cls-1" d="M152.45,83.36l-6-13.92h-2.86l8.55,19.91h.64l8.38-19.91h-2.82Z"/><path id="パス_62" data-name="パス 62" class="cls-1" d="M167.29,76a5.65,5.65,0,0,0-4.38,1.87,6.92,6.92,0,0,0-1.69,4.84,7.31,7.31,0,0,0,.8,3.5,6.51,6.51,0,0,0,2.13,2.41,6.23,6.23,0,0,0,3.5.89,10.14,10.14,0,0,0,2.74-.34A8.58,8.58,0,0,0,172.75,88V85.46A7.78,7.78,0,0,1,168,87.05a4.15,4.15,0,0,1-3-1.11,4.24,4.24,0,0,1-1.26-3H173v-.33a7.25,7.25,0,0,0-1.55-4.86A5.17,5.17,0,0,0,167.29,76Zm-3.43,5.47A4.17,4.17,0,0,1,165,79a3.2,3.2,0,0,1,2.28-.84,3,3,0,0,1,2.22.84,3.67,3.67,0,0,1,.92,2.39Z"/><path id="パス_63" data-name="パス 63" class="cls-1" d="M179.11,77.42a4,4,0,0,0-1.53,3.3,4.28,4.28,0,0,0,2.88,4.13,3.43,3.43,0,0,0-1.51.76,1.5,1.5,0,0,0-.56,1.13c0,.55.43,1.1,1.3,1.66-2.18.51-3.28,1.65-3.28,3.42a3.45,3.45,0,0,0,1.67,3,8,8,0,0,0,4.46,1.11,7.79,7.79,0,0,0,4.42-1.1,3.44,3.44,0,0,0,1.66-3,3.22,3.22,0,0,0-.94-2.35,4.25,4.25,0,0,0-1.24-.86,22,22,0,0,0-3.09-.82,8.69,8.69,0,0,1-2-.6.85.85,0,0,1-.54-.74c0-.53.48-.87,1.46-1a9.2,9.2,0,0,0,3-.84,4,4,0,0,0,1.5-1.51,3.89,3.89,0,0,0,.59-2,3.5,3.5,0,0,0-.3-1.46A5.52,5.52,0,0,0,186,78.23h2.64v-2h-5.37A6.47,6.47,0,0,0,179.11,77.42Zm2.71,12.45a7.07,7.07,0,0,1,3.08.58c.8.38,1.2.88,1.19,1.48a1.56,1.56,0,0,1-.94,1.43,5.77,5.77,0,0,1-2.66.5c-2.42,0-3.63-.67-3.63-2a1.63,1.63,0,0,1,.83-1.41,3.73,3.73,0,0,1,2.13-.56Zm3.2-9a2.24,2.24,0,0,1-.73,1.69,2.85,2.85,0,0,1-3.66,0,2.15,2.15,0,0,1-.72-1.67,2.26,2.26,0,0,1,.74-1.7,2.47,2.47,0,0,1,1.78-.71,2.62,2.62,0,0,1,1.85.68,2.25,2.25,0,0,1,.74,1.7Z"/><path id="パス_64" data-name="パス 64" class="cls-1" d="M201.32,87V81.42a16.72,16.72,0,0,0-.09-2.24A3.49,3.49,0,0,0,200.8,78a3.65,3.65,0,0,0-.77-.94A5,5,0,0,0,196.64,76a5.36,5.36,0,0,0-4.33,1.78v2.82a5.69,5.69,0,0,1,4.12-2.19,2.08,2.08,0,0,1,2.35,1.77,2,2,0,0,1,0,.59v.69l-3.3,1.14A6.14,6.14,0,0,0,193,84.09a3.17,3.17,0,0,0-.89,2.2,3.09,3.09,0,0,0,3.18,3.17,5.69,5.69,0,0,0,3.51-1.28c.2.87.85,1.3,2,1.3a2.83,2.83,0,0,0,1.11-.2,8.38,8.38,0,0,0,1.41-.77V86.93a3.11,3.11,0,0,1-1.46.7C201.47,87.63,201.32,87.41,201.32,87Zm-2.54-.28a3.23,3.23,0,0,1-2.28,1,1.85,1.85,0,0,1-1.34-.51,1.77,1.77,0,0,1-.52-1.32,1.8,1.8,0,0,1,.55-1.33,6,6,0,0,1,1.86-1.06l1.73-.66Z"/><path id="パス_65" data-name="パス 65" class="cls-1" d="M216.49,76.58a4.44,4.44,0,0,0-2.27-.63,5.18,5.18,0,0,0-3.93,1.92V76.21h-2.64V89.26h2.64V79.94a3.73,3.73,0,0,1,3.1-1.83,2.32,2.32,0,0,1,2,.86,5.07,5.07,0,0,1,.61,2.86v7.43h2.59V81.8a8.31,8.31,0,0,0-.55-3.49A4.14,4.14,0,0,0,216.49,76.58Z"/><path id="パス_66" data-name="パス 66" class="cls-1" d="M234,89.26h2.83V80h7.74V77.5h-7.74V72h7.74V69.44H234Z"/><path id="パス_67" data-name="パス 67" class="cls-1" d="M257,87V81.42a18.56,18.56,0,0,0-.1-2.24,3.29,3.29,0,0,0-.43-1.18,3.65,3.65,0,0,0-.77-.94A5,5,0,0,0,252.26,76a5.33,5.33,0,0,0-4.32,1.78v2.82a5.69,5.69,0,0,1,4.11-2.19,2.09,2.09,0,0,1,2.36,1.77,2.91,2.91,0,0,1,0,.59v.69l-3.31,1.14a6.14,6.14,0,0,0-2.52,1.54,3.16,3.16,0,0,0-.88,2.2,3.06,3.06,0,0,0,.9,2.27,3.14,3.14,0,0,0,2.28.9,5.68,5.68,0,0,0,3.5-1.28c.2.87.85,1.3,2,1.3a2.8,2.8,0,0,0,1.11-.2,8,8,0,0,0,1.41-.77V86.93a3.11,3.11,0,0,1-1.46.7C257.1,87.63,257,87.41,257,87Zm-2.54-.28a3.26,3.26,0,0,1-2.29,1,1.85,1.85,0,0,1-1.34-.51,1.77,1.77,0,0,1-.52-1.32,1.8,1.8,0,0,1,.55-1.33,6,6,0,0,1,1.86-1.06l1.74-.66Z"/><path id="パス_68" data-name="パス 68" class="cls-1" d="M265.55,85.9a4.23,4.23,0,0,1-1.21-3.18,4.49,4.49,0,0,1,1.12-3.13,3.68,3.68,0,0,1,2.87-1.22A6.82,6.82,0,0,1,272,79.61V76.87a11.42,11.42,0,0,0-2-.72,7.33,7.33,0,0,0-1.81-.19,6.1,6.1,0,0,0-4.67,1.88,7,7,0,0,0-1.77,5,6.55,6.55,0,0,0,1.82,4.87,6.62,6.62,0,0,0,4.89,1.81,10.82,10.82,0,0,0,3.81-.72V86.22a8.47,8.47,0,0,1-3.42.86A4.5,4.5,0,0,1,265.55,85.9Z"/><path id="パス_69" data-name="パス 69" class="cls-1" d="M280.24,84.92V78.54h4.13V76.21h-4.13v-2.7l-4.85,4.77v.26h2.27v5.78a11.45,11.45,0,0,0,.16,2.41,3.74,3.74,0,0,0,.4,1,3.13,3.13,0,0,0,.61.7,4.37,4.37,0,0,0,2.95,1,6.59,6.59,0,0,0,3.25-.84V86.24a5.85,5.85,0,0,1-2.93.92C280.86,87.16,280.24,86.42,280.24,84.92Z"/><path id="パス_70" data-name="パス 70" class="cls-1" d="M295.32,76.18a6.91,6.91,0,0,0-5,1.91,6.69,6.69,0,0,0,0,9.51,6.85,6.85,0,0,0,4.92,1.89,7.1,7.1,0,0,0,5-1.87,6.08,6.08,0,0,0,2-4.68,6.48,6.48,0,0,0-2-4.84A6.81,6.81,0,0,0,295.32,76.18Zm3.09,9.7a4.26,4.26,0,0,1-3.12,1.2,4.32,4.32,0,0,1-3.13-1.18,4.06,4.06,0,0,1-1.22-3.06,4.28,4.28,0,0,1,1.19-3.11,4.14,4.14,0,0,1,3.05-1.22,4.47,4.47,0,0,1,3.18,1.22,4.45,4.45,0,0,1,.05,6.15Z"/><path id="パス_71" data-name="パス 71" class="cls-1" d="M308.89,79l-.14.22v-3h-2.6V89.26h2.6V82.44a4.56,4.56,0,0,1,.91-2.83,2.71,2.71,0,0,1,2.17-1.19,3.81,3.81,0,0,1,2.5,1.28l1.36-2.27A4.62,4.62,0,0,0,312.64,76Q310.77,76,308.89,79Z"/><path id="パス_72" data-name="パス 72" class="cls-1" d="M327.11,76.21l-3.38,7.37-3.53-7.37h-2.94l5,10.25-4.43,9.46h2.88L330,76.21Z"/></g><g id="グループ_42" data-name="グループ 42"><path id="パス_73" data-name="パス 73" class="cls-1" d="M152.91,40.73l-6.59-8.14h-2.69V52.41h2.84V37l6.17,7.66h.52l6.1-7.66V52.42h2.85V32.59h-2.65Z"/><path id="パス_74" data-name="パス 74" class="cls-1" d="M172.56,43.7h7.09V41.16h-7.09v-6h7.37V32.59H169.72v19.8H180.2V49.86h-7.64Z"/><path id="パス_75" data-name="パス 75" class="cls-1" d="M222.7,47.82a12.8,12.8,0,0,1-7,2.21,7.9,7.9,0,0,1-5.66-2.1,7,7,0,0,1-2.21-5.36A7.11,7.11,0,0,1,210,37.18,7.87,7.87,0,0,1,215.69,35a13.62,13.62,0,0,1,6.8,2V34a17.92,17.92,0,0,0-6.94-1.64,10.61,10.61,0,0,0-7.62,3,9.67,9.67,0,0,0-3.08,7.28,10.1,10.1,0,0,0,5,8.74,11.14,11.14,0,0,0,5.63,1.33,14.82,14.82,0,0,0,7.21-1.7Z"/><path id="パス_76" data-name="パス 76" class="cls-1" d="M234,52.42H237V41.93l7.32-9.34h-3.45l-5.37,6.84-5.31-6.84h-3.42L234,41.93Z"/><path id="パス_77" data-name="パス 77" class="cls-1" d="M190.22,43.79h3.55c2.75,0,3.31,1.69,3.31,4.82v3.81h2.83V48c0-3-.59-4.19-1.76-5.18a5.92,5.92,0,0,0-1.44-.88,4.69,4.69,0,0,0,2.17-3.84,5,5,0,0,0-1.76-4,7.21,7.21,0,0,0-4.78-1.49h-5V52.41h2.84Zm0-8.79h.85a10.05,10.05,0,0,1,3,.32,2.61,2.61,0,0,1,1.4,1.07,3.07,3.07,0,0,1,.5,1.69,3.25,3.25,0,0,1-.45,1.7,2.75,2.75,0,0,1-1.25,1.11,7.79,7.79,0,0,1-3,.37h-1.07Z"/></g></g></svg>